<svg width="891" height="748" viewBox="0 0 891 748" fill="none" xmlns="http://www.w3.org/2000/svg">
<g filter="url(#filter0_i_2976_25)">
<path fill-rule="evenodd" clip-rule="evenodd" d="M399.922 7.05132C366.971 16.5825 329.499 60.3306 329.258 89.5517C329.031 116.993 314.497 133.764 294.481 129.68C279.528 126.63 276.613 117.985 277.901 80.4886L279.464 34.9958H241.411C105.826 34.9958 39.2181 183.93 157.067 223.583C190.301 234.767 205.329 263.445 184.649 276.228C160.276 291.29 59.2483 227.742 59.2483 227.742C59.2483 227.742 37.2962 222.09 20.3934 259.325C-41.2044 395.03 46.2104 543.004 189.504 545.596C290.453 547.422 355.132 435.509 294.658 363.643C280.847 347.229 272.032 327.369 275.057 319.483C282.911 299.024 317.061 301.786 336.467 324.451C366.081 359.037 425.888 326.429 425.888 275.696C425.888 245.557 437.051 227.966 456.17 227.966C515.129 227.966 468.722 366.532 401.16 392.222C385.264 398.264 377.722 411.447 372.652 442.044C364.337 492.238 353.962 514.07 322.276 548.067L298.207 573.895L349.327 589.075C442.185 616.65 454.836 612.555 454.836 554.914C454.836 477.435 481.2 441.452 596.116 362.093C676.403 306.647 699.189 285.458 716.113 250.499C762.549 154.575 700.6 55.6715 592.229 52.7142C571.554 52.1505 547.535 43.9384 535.979 33.4853C500.411 1.30002 452.184 -8.068 399.922 7.05132ZM783.646 238.873C767.945 291.28 706.546 355.945 628.414 402.363C543.492 452.816 512.452 486.466 505.921 535.175C498.964 587.036 540.23 633.202 593.545 633.202C624.674 633.202 629.269 636.968 646.955 676.947C706.11 810.68 840.869 741.863 857.048 569.654L862.565 510.932L796.191 511.765C705.834 512.896 697.359 481.644 782.884 462.698C897.339 437.349 928.003 311.643 839.202 231.813C800.638 197.142 795.972 197.734 783.646 238.873Z" fill="url(#paint0_linear_2976_25)"/>
</g>
<defs>
<filter id="filter0_i_2976_25" x="0.38208" y="0" width="914.329" height="771.256" filterUnits="userSpaceOnUse" color-interpolation-filters="sRGB">
<feFlood flood-opacity="0" result="BackgroundImageFix"/>
<feBlend mode="normal" in="SourceGraphic" in2="BackgroundImageFix" result="shape"/>
<feColorMatrix in="SourceAlpha" type="matrix" values="0 0 0 0 0 0 0 0 0 0 0 0 0 0 0 0 0 0 127 0" result="hardAlpha"/>
<feOffset dx="24" dy="24"/>
<feGaussianBlur stdDeviation="22.25"/>
<feComposite in2="hardAlpha" operator="arithmetic" k2="-1" k3="1"/>
<feColorMatrix type="matrix" values="0 0 0 0 0 0 0 0 0 0 0 0 0 0 0 0 0 0 0.25 0"/>
<feBlend mode="normal" in2="shape" result="effect1_innerShadow_2976_25"/>
</filter>
<linearGradient id="paint0_linear_2976_25" x1="-58.038" y1="-51.814" x2="775.772" y2="941.64" gradientUnits="userSpaceOnUse">
<stop stop-color="#FF5353"/>
<stop offset="0.535" stop-color="#5372E2"/>
<stop offset="1" stop-color="#21BA30"/>
</linearGradient>
</defs>
</svg>
